<mxfile>
    <diagram id="dwfFpv9OHfALqprY5GeY" name="Page-1">
        <mxGraphModel dx="888" dy="1247" grid="1" gridSize="10" guides="1" tooltips="1" connect="1" arrows="1" fold="1" page="1" pageScale="1" pageWidth="827" pageHeight="1169" math="0" shadow="0">
            <root>
                <mxCell id="0"/>
                <mxCell id="1" parent="0"/>
                <mxCell id="2" value="Generalização / Especialização" style="text;strokeColor=none;fillColor=none;html=1;fontSize=24;fontStyle=1;verticalAlign=middle;align=center;" vertex="1" parent="1">
                    <mxGeometry x="370" y="40" width="100" height="40" as="geometry"/>
                </mxCell>
                <mxCell id="7" value="c" style="edgeStyle=orthogonalEdgeStyle;rounded=0;orthogonalLoop=1;jettySize=auto;html=1;endArrow=none;endFill=0;fontSize=22;" edge="1" parent="1" source="5" target="6">
                    <mxGeometry x="0.8182" y="20" relative="1" as="geometry">
                        <mxPoint as="offset"/>
                    </mxGeometry>
                </mxCell>
                <mxCell id="5" value="Compartilhada" style="whiteSpace=wrap;html=1;" vertex="1" parent="1">
                    <mxGeometry x="160" y="410" width="120" height="60" as="geometry"/>
                </mxCell>
                <mxCell id="6" value="" style="triangle;whiteSpace=wrap;html=1;flipH=1;" vertex="1" parent="1">
                    <mxGeometry x="380" y="400" width="60" height="80" as="geometry"/>
                </mxCell>
                <mxCell id="8" value="e ou x" style="edgeStyle=orthogonalEdgeStyle;rounded=0;orthogonalLoop=1;jettySize=auto;html=1;endArrow=none;endFill=0;fontSize=22;align=right;" edge="1" source="9" target="10" parent="1">
                    <mxGeometry x="0.8182" y="20" relative="1" as="geometry">
                        <mxPoint as="offset"/>
                    </mxGeometry>
                </mxCell>
                <mxCell id="9" value="Exclusiva" style="whiteSpace=wrap;html=1;" vertex="1" parent="1">
                    <mxGeometry x="160" y="530" width="120" height="60" as="geometry"/>
                </mxCell>
                <mxCell id="10" value="" style="triangle;whiteSpace=wrap;html=1;flipH=1;" vertex="1" parent="1">
                    <mxGeometry x="380" y="520" width="60" height="80" as="geometry"/>
                </mxCell>
                <mxCell id="11" value="p" style="edgeStyle=orthogonalEdgeStyle;rounded=0;orthogonalLoop=1;jettySize=auto;html=1;endArrow=none;endFill=0;fontSize=22;" edge="1" source="12" target="13" parent="1">
                    <mxGeometry x="0.8182" y="20" relative="1" as="geometry">
                        <mxPoint as="offset"/>
                    </mxGeometry>
                </mxCell>
                <mxCell id="12" value="Parcial" style="whiteSpace=wrap;html=1;" vertex="1" parent="1">
                    <mxGeometry x="160" y="290" width="120" height="60" as="geometry"/>
                </mxCell>
                <mxCell id="13" value="" style="triangle;whiteSpace=wrap;html=1;flipH=1;" vertex="1" parent="1">
                    <mxGeometry x="380" y="280" width="60" height="80" as="geometry"/>
                </mxCell>
                <mxCell id="14" value="t" style="edgeStyle=orthogonalEdgeStyle;rounded=0;orthogonalLoop=1;jettySize=auto;html=1;endArrow=none;endFill=0;fontSize=22;" edge="1" source="15" target="16" parent="1">
                    <mxGeometry x="0.8182" y="20" relative="1" as="geometry">
                        <mxPoint as="offset"/>
                    </mxGeometry>
                </mxCell>
                <mxCell id="15" value="Total" style="whiteSpace=wrap;html=1;" vertex="1" parent="1">
                    <mxGeometry x="160" y="170" width="120" height="60" as="geometry"/>
                </mxCell>
                <mxCell id="17" value="" style="edgeStyle=orthogonalEdgeStyle;rounded=0;orthogonalLoop=1;jettySize=auto;html=1;endArrow=none;endFill=0;fontSize=22;" edge="1" parent="1" source="16" target="15">
                    <mxGeometry relative="1" as="geometry"/>
                </mxCell>
                <mxCell id="19" value="" style="rounded=0;orthogonalLoop=1;jettySize=auto;html=1;endArrow=none;endFill=0;fontSize=22;" edge="1" parent="1" source="16" target="18">
                    <mxGeometry relative="1" as="geometry"/>
                </mxCell>
                <mxCell id="16" value="" style="triangle;whiteSpace=wrap;html=1;flipH=1;" vertex="1" parent="1">
                    <mxGeometry x="380" y="160" width="60" height="80" as="geometry"/>
                </mxCell>
                <mxCell id="18" value="A" style="whiteSpace=wrap;html=1;" vertex="1" parent="1">
                    <mxGeometry x="480" y="160" width="30" height="30" as="geometry"/>
                </mxCell>
                <mxCell id="21" style="edgeStyle=none;rounded=0;orthogonalLoop=1;jettySize=auto;html=1;endArrow=none;endFill=0;fontSize=22;" edge="1" parent="1" source="20" target="16">
                    <mxGeometry relative="1" as="geometry"/>
                </mxCell>
                <mxCell id="20" value="B" style="whiteSpace=wrap;html=1;" vertex="1" parent="1">
                    <mxGeometry x="480" y="210" width="30" height="30" as="geometry"/>
                </mxCell>
                <mxCell id="22" value="{Mandatory}&lt;br&gt;1,n" style="strokeWidth=2;html=1;shape=mxgraph.flowchart.annotation_2;align=left;labelPosition=right;pointerEvents=1;fontSize=22;" vertex="1" parent="1">
                    <mxGeometry x="520" y="160" width="40" height="80" as="geometry"/>
                </mxCell>
                <mxCell id="23" value="{Optional}&lt;br&gt;0,1" style="strokeWidth=2;html=1;shape=mxgraph.flowchart.annotation_2;align=left;labelPosition=right;pointerEvents=1;fontSize=22;" vertex="1" parent="1">
                    <mxGeometry x="520" y="280" width="40" height="80" as="geometry"/>
                </mxCell>
                <mxCell id="24" value="" style="rounded=0;orthogonalLoop=1;jettySize=auto;html=1;endArrow=none;endFill=0;fontSize=22;" edge="1" target="25" parent="1">
                    <mxGeometry relative="1" as="geometry">
                        <mxPoint x="440" y="311.17647058823513" as="sourcePoint"/>
                    </mxGeometry>
                </mxCell>
                <mxCell id="25" value="A" style="whiteSpace=wrap;html=1;" vertex="1" parent="1">
                    <mxGeometry x="480" y="280" width="30" height="30" as="geometry"/>
                </mxCell>
                <mxCell id="26" style="edgeStyle=none;rounded=0;orthogonalLoop=1;jettySize=auto;html=1;endArrow=none;endFill=0;fontSize=22;" edge="1" source="27" parent="1">
                    <mxGeometry relative="1" as="geometry">
                        <mxPoint x="440" y="328.82352941176464" as="targetPoint"/>
                    </mxGeometry>
                </mxCell>
                <mxCell id="27" value="B" style="whiteSpace=wrap;html=1;" vertex="1" parent="1">
                    <mxGeometry x="480" y="330" width="30" height="30" as="geometry"/>
                </mxCell>
                <mxCell id="28" value="" style="rounded=0;orthogonalLoop=1;jettySize=auto;html=1;endArrow=none;endFill=0;fontSize=22;" edge="1" target="29" parent="1">
                    <mxGeometry relative="1" as="geometry">
                        <mxPoint x="440" y="551.1764705882351" as="sourcePoint"/>
                    </mxGeometry>
                </mxCell>
                <mxCell id="29" value="A" style="whiteSpace=wrap;html=1;" vertex="1" parent="1">
                    <mxGeometry x="480" y="520" width="30" height="30" as="geometry"/>
                </mxCell>
                <mxCell id="30" style="edgeStyle=none;rounded=0;orthogonalLoop=1;jettySize=auto;html=1;endArrow=none;endFill=0;fontSize=22;" edge="1" source="31" parent="1">
                    <mxGeometry relative="1" as="geometry">
                        <mxPoint x="440" y="568.8235294117646" as="targetPoint"/>
                    </mxGeometry>
                </mxCell>
                <mxCell id="31" value="B" style="whiteSpace=wrap;html=1;" vertex="1" parent="1">
                    <mxGeometry x="480" y="570" width="30" height="30" as="geometry"/>
                </mxCell>
                <mxCell id="32" value="" style="rounded=0;orthogonalLoop=1;jettySize=auto;html=1;endArrow=none;endFill=0;fontSize=22;" edge="1" target="33" parent="1">
                    <mxGeometry relative="1" as="geometry">
                        <mxPoint x="440" y="431.17647058823513" as="sourcePoint"/>
                    </mxGeometry>
                </mxCell>
                <mxCell id="33" value="A" style="whiteSpace=wrap;html=1;" vertex="1" parent="1">
                    <mxGeometry x="480" y="400" width="30" height="30" as="geometry"/>
                </mxCell>
                <mxCell id="34" style="edgeStyle=none;rounded=0;orthogonalLoop=1;jettySize=auto;html=1;endArrow=none;endFill=0;fontSize=22;" edge="1" source="35" parent="1">
                    <mxGeometry relative="1" as="geometry">
                        <mxPoint x="440" y="448.82352941176464" as="targetPoint"/>
                    </mxGeometry>
                </mxCell>
                <mxCell id="35" value="B" style="whiteSpace=wrap;html=1;" vertex="1" parent="1">
                    <mxGeometry x="480" y="450" width="30" height="30" as="geometry"/>
                </mxCell>
                <mxCell id="36" value="{Or}&lt;br&gt;1,n" style="strokeWidth=2;html=1;shape=mxgraph.flowchart.annotation_2;align=left;labelPosition=right;pointerEvents=1;fontSize=22;" vertex="1" parent="1">
                    <mxGeometry x="520" y="520" width="40" height="80" as="geometry"/>
                </mxCell>
                <mxCell id="37" value="{And}&lt;br&gt;0,n" style="strokeWidth=2;html=1;shape=mxgraph.flowchart.annotation_2;align=left;labelPosition=right;pointerEvents=1;fontSize=22;" vertex="1" parent="1">
                    <mxGeometry x="520" y="400" width="40" height="80" as="geometry"/>
                </mxCell>
                <mxCell id="52" value="Representa objetos com mesmos atributos, são categorizáveis, em hierarquia, em dependência com a mesma entidade raiz." style="text;html=1;strokeColor=none;fillColor=none;align=center;verticalAlign=middle;whiteSpace=wrap;rounded=0;fontSize=22;" vertex="1" parent="1">
                    <mxGeometry x="80" y="80" width="680" height="35" as="geometry"/>
                </mxCell>
                <mxCell id="53" value="Fonte:&lt;br&gt;&lt;ul&gt;&lt;li&gt;&lt;span&gt;&lt;a href=&quot;https://slideplayer.com.br/slide/12152083/&quot;&gt;https://slideplayer.com.br/slide/12152083/&lt;/a&gt;&lt;br&gt;&lt;/span&gt;&lt;/li&gt;&lt;li&gt;&lt;a href=&quot;http://www.uel.br/pessoal/valerio/03%20Modelagem%20Conceitual%20parte%20II-%206%20slides.pdf&quot;&gt;http://www.uel.br/pessoal/valerio/03%20Modelagem%20Conceitual%20parte%20II-%206%20slides.pdf&lt;/a&gt;&lt;br&gt;&lt;/li&gt;&lt;li&gt;&lt;a href=&quot;https://www.cs.uct.ac.za/mit_notes/database/htmls/chp07.html&quot;&gt;https://www.cs.uct.ac.za/mit_notes/database/htmls/chp07.html&lt;/a&gt;&lt;br&gt;&lt;/li&gt;&lt;/ul&gt;" style="text;html=1;strokeColor=none;fillColor=none;align=left;verticalAlign=top;rounded=0;fontSize=22;whiteSpace=wrap;" vertex="1" parent="1">
                    <mxGeometry x="80" y="840" width="640" height="280" as="geometry"/>
                </mxCell>
            </root>
        </mxGraphModel>
    </diagram>
</mxfile>